# MagicaVoxel @ Ephtracy

# group
g untitled

# material
mtllib untitled.mtl
usemtl palette

# normals
vn -1 0 0
vn 1 0 0
vn 0 0 1
vn 0 0 -1
vn 0 -1 0
vn 0 1 0

# texcoords
vt 0.146484 0.5
vt 0.310547 0.5
vt 0.501953 0.5
vt 0.623047 0.5
vt 0.654297 0.5
vt 0.732422 0.5
vt 0.767578 0.5
vt 0.841797 0.5
vt 0.869141 0.5
vt 0.919922 0.5
vt 0.923828 0.5
vt 0.955078 0.5
vt 0.958984 0.5

# verts
v -20 0 20
v -20 0 12
v -20 40 20
v -20 40 12
v -16 16 19
v -16 16 18
v -16 18 18
v -16 19 19
v -16 19 18
v -16 21 19
v -16 21 18
v -15 21 19
v -15 21 18
v -15 26 19
v -15 26 18
v -15 30 19
v -15 30 18
v -10 7 19
v -10 7 18
v -10 11 19
v -10 11 18
v 18 2 20
v 18 2 19
v 18 2 18
v 18 38 20
v 18 38 19
v 18 38 18
v -18 2 20
v -18 2 19
v -18 11 19
v -18 16 19
v -18 16 18
v -18 18 18
v -18 38 20
v -18 38 19
v -18 38 18
v -14 27 19
v -14 27 18
v -14 30 19
v -14 30 18
v -13 14 19
v -13 14 18
v -13 16 18
v -13 17 19
v -13 17 18
v -13 26 19
v -13 26 18
v -13 27 19
v -13 27 18
v -11 7 19
v -11 7 18
v -11 14 19
v -11 14 18
v -8 7 19
v -8 7 18
v -8 9 18
v -8 11 19
v -8 11 18
v -6 3 19
v -6 3 18
v -6 4 18
v -6 5 18
v -6 7 19
v -6 7 18
v -5 2 19
v -5 2 18
v -5 3 19
v -5 3 18
v 20 0 20
v 20 0 12
v 20 40 20
v 20 40 12
v -20 0 20
v -20 40 20
v -18 2 20
v -18 38 20
v 18 2 20
v 18 38 20
v 20 0 20
v 20 40 20
v -18 2 19
v -18 11 19
v -18 16 19
v -17 10 19
v -17 11 19
v -16 9 19
v -16 10 19
v -16 14 19
v -16 15 19
v -16 16 19
v -16 19 19
v -16 21 19
v -15 15 19
v -15 16 19
v -15 19 19
v -15 21 19
v -15 26 19
v -15 30 19
v -14 9 19
v -14 14 19
v -14 16 19
v -14 17 19
v -14 27 19
v -14 30 19
v -13 3 19
v -13 11 19
v -13 14 19
v -13 17 19
v -13 26 19
v -13 27 19
v -12 6 19
v -12 11 19
v -11 7 19
v -11 14 19
v -10 5 19
v -10 6 19
v -10 7 19
v -10 11 19
v -9 3 19
v -9 5 19
v -8 7 19
v -8 11 19
v -6 3 19
v -6 7 19
v -5 2 19
v -5 3 19
v -18 16 18
v -18 18 18
v -18 38 18
v -16 16 18
v -16 18 18
v -16 19 18
v -16 21 18
v -15 21 18
v -15 26 18
v -15 30 18
v -14 27 18
v -14 30 18
v -14 31 18
v -14 34 18
v -13 14 18
v -13 16 18
v -13 17 18
v -13 26 18
v -13 27 18
v -13 30 18
v -13 31 18
v -13 34 18
v -13 35 18
v -12 29 18
v -12 30 18
v -12 31 18
v -12 34 18
v -12 35 18
v -12 36 18
v -11 7 18
v -11 14 18
v -11 24 18
v -11 26 18
v -11 29 18
v -10 7 18
v -10 11 18
v -10 14 18
v -10 16 18
v -10 21 18
v -10 22 18
v -10 24 18
v -10 25 18
v -10 26 18
v -10 27 18
v -9 13 18
v -9 14 18
v -9 19 18
v -9 20 18
v -9 27 18
v -9 28 18
v -9 29 18
v -9 30 18
v -9 31 18
v -9 34 18
v -9 35 18
v -9 36 18
v -8 7 18
v -8 9 18
v -8 11 18
v -8 18 18
v -8 19 18
v -8 21 18
v -8 22 18
v -8 23 18
v -8 24 18
v -8 25 18
v -8 26 18
v -8 28 18
v -8 29 18
v -8 30 18
v -8 31 18
v -8 34 18
v -8 35 18
v -7 7 18
v -7 9 18
v -7 17 18
v -7 18 18
v -7 20 18
v -7 23 18
v -7 24 18
v -7 25 18
v -7 26 18
v -7 28 18
v -7 29 18
v -7 30 18
v -7 31 18
v -7 34 18
v -6 3 18
v -6 4 18
v -6 5 18
v -6 7 18
v -6 10 18
v -6 11 18
v -6 17 18
v -6 18 18
v -6 25 18
v -6 26 18
v -6 28 18
v -6 30 18
v -6 31 18
v -6 32 18
v -5 2 18
v -5 3 18
v -5 17 18
v -5 18 18
v -5 20 18
v -5 22 18
v -5 30 18
v -5 31 18
v -4 9 18
v -4 10 18
v -4 11 18
v -4 12 18
v -4 13 18
v -4 17 18
v -4 18 18
v -4 20 18
v -4 21 18
v -4 25 18
v -4 26 18
v -4 29 18
v -4 31 18
v -4 32 18
v -3 9 18
v -3 11 18
v -3 21 18
v -3 22 18
v -3 25 18
v -3 26 18
v -2 4 18
v -2 5 18
v -2 7 18
v -2 8 18
v -2 9 18
v -2 10 18
v -2 12 18
v -2 13 18
v -2 15 18
v -2 18 18
v -2 19 18
v -2 22 18
v -2 23 18
v -2 24 18
v -2 25 18
v -2 30 18
v -2 31 18
v -1 8 18
v -1 9 18
v -1 10 18
v -1 13 18
v -1 15 18
v -1 18 18
v -1 19 18
v -1 24 18
v -1 25 18
v -1 28 18
v -1 29 18
v -1 30 18
v -1 31 18
v 0 22 18
v 0 23 18
v 0 24 18
v 0 25 18
v 0 28 18
v 0 29 18
v 0 30 18
v 1 23 18
v 1 24 18
v 1 25 18
v 1 28 18
v 1 29 18
v 1 30 18
v 2 4 18
v 2 5 18
v 2 7 18
v 2 18 18
v 2 19 18
v 3 4 18
v 3 5 18
v 3 7 18
v 3 8 18
v 3 18 18
v 3 19 18
v 3 21 18
v 3 22 18
v 4 16 18
v 4 17 18
v 4 21 18
v 4 22 18
v 4 23 18
v 4 24 18
v 4 25 18
v 4 28 18
v 4 29 18
v 4 30 18
v 5 24 18
v 5 25 18
v 5 28 18
v 5 29 18
v 6 4 18
v 6 6 18
v 6 7 18
v 6 9 18
v 6 16 18
v 6 17 18
v 6 18 18
v 6 19 18
v 6 22 18
v 6 25 18
v 6 28 18
v 6 32 18
v 6 35 18
v 7 4 18
v 7 6 18
v 7 7 18
v 7 8 18
v 7 18 18
v 7 19 18
v 7 22 18
v 7 23 18
v 7 31 18
v 7 32 18
v 7 35 18
v 7 36 18
v 8 25 18
v 8 26 18
v 8 30 18
v 8 31 18
v 8 32 18
v 8 35 18
v 8 36 18
v 8 37 18
v 9 2 18
v 9 3 18
v 9 25 18
v 9 26 18
v 10 2 18
v 10 3 18
v 10 14 18
v 10 15 18
v 10 18 18
v 10 19 18
v 10 22 18
v 10 23 18
v 11 14 18
v 11 15 18
v 11 19 18
v 11 22 18
v 11 30 18
v 11 31 18
v 11 32 18
v 11 35 18
v 11 36 18
v 11 37 18
v 12 6 18
v 12 8 18
v 12 14 18
v 12 15 18
v 12 21 18
v 12 22 18
v 12 24 18
v 12 25 18
v 12 31 18
v 12 32 18
v 12 35 18
v 12 36 18
v 13 2 18
v 13 3 18
v 13 13 18
v 13 14 18
v 13 15 18
v 13 21 18
v 13 22 18
v 13 24 18
v 13 25 18
v 13 32 18
v 13 35 18
v 14 2 18
v 14 3 18
v 14 6 18
v 14 13 18
v 14 14 18
v 15 4 18
v 15 6 18
v 16 2 18
v 16 3 18
v 17 4 18
v 17 6 18
v 18 2 18
v 18 38 18
v -20 0 12
v -20 40 12
v 20 0 12
v 20 40 12
v -20 0 20
v 20 0 20
v -20 0 12
v 20 0 12
v -18 38 20
v 18 38 20
v -18 38 19
v 18 38 19
v -18 38 18
v 18 38 18
v -18 2 20
v 18 2 20
v -18 2 19
v -5 2 19
v 18 2 19
v -5 2 18
v 9 2 18
v 10 2 18
v 13 2 18
v 14 2 18
v 16 2 18
v 18 2 18
v -6 3 19
v -5 3 19
v -6 3 18
v -5 3 18
v -11 7 19
v -10 7 19
v -8 7 19
v -6 7 19
v -11 7 18
v -10 7 18
v -8 7 18
v -7 7 18
v -6 7 18
v -10 11 19
v -8 11 19
v -10 11 18
v -8 11 18
v -13 14 19
v -11 14 19
v -13 14 18
v -11 14 18
v -18 16 19
v -16 16 19
v -18 16 18
v -16 16 18
v -16 21 19
v -15 21 19
v -16 21 18
v -15 21 18
v -14 27 19
v -13 27 19
v -14 27 18
v -13 27 18
v -15 30 19
v -14 30 19
v -15 30 18
v -14 30 18
v -20 40 20
v 20 40 20
v -20 40 12
v 20 40 12

# faces
f 3/1/1 2/1/1 1/1/1
f 4/1/1 2/1/1 3/1/1
f 7/12/1 6/12/1 5/12/1
f 8/12/1 7/12/1 5/12/1
f 9/12/1 7/12/1 8/12/1
f 10/2/1 9/2/1 8/2/1
f 11/2/1 9/2/1 10/2/1
f 14/12/1 13/12/1 12/12/1
f 15/12/1 13/12/1 14/12/1
f 16/2/1 15/2/1 14/2/1
f 17/2/1 15/2/1 16/2/1
f 20/2/1 19/2/1 18/2/1
f 21/2/1 19/2/1 20/2/1
f 25/1/1 23/1/1 22/1/1
f 26/9/1 24/9/1 23/9/1
f 26/1/1 23/1/1 25/1/1
f 27/9/1 24/9/1 26/9/1
f 28/1/2 29/1/2 30/1/2
f 28/1/2 30/1/2 31/1/2
f 31/9/2 32/9/2 33/9/2
f 28/1/2 31/1/2 34/1/2
f 31/9/2 33/9/2 35/9/2
f 34/1/2 31/1/2 35/1/2
f 35/9/2 33/9/2 36/9/2
f 37/2/2 38/2/2 39/2/2
f 39/2/2 38/2/2 40/2/2
f 41/2/2 42/2/2 43/2/2
f 41/2/2 43/2/2 44/2/2
f 44/2/2 43/2/2 45/2/2
f 44/12/2 45/12/2 46/12/2
f 46/12/2 45/12/2 47/12/2
f 46/2/2 47/2/2 48/2/2
f 48/2/2 47/2/2 49/2/2
f 50/2/2 51/2/2 52/2/2
f 52/2/2 51/2/2 53/2/2
f 54/2/2 55/2/2 56/2/2
f 54/2/2 56/2/2 57/2/2
f 57/2/2 56/2/2 58/2/2
f 59/2/2 60/2/2 61/2/2
f 59/2/2 61/2/2 62/2/2
f 59/2/2 62/2/2 63/2/2
f 63/2/2 62/2/2 64/2/2
f 65/2/2 66/2/2 67/2/2
f 67/2/2 66/2/2 68/2/2
f 69/1/2 70/1/2 71/1/2
f 71/1/2 70/1/2 72/1/2
f 75/1/3 74/1/3 73/1/3
f 76/1/3 74/1/3 75/1/3
f 77/1/3 75/1/3 73/1/3
f 78/1/3 74/1/3 76/1/3
f 79/1/3 77/1/3 73/1/3
f 79/1/3 78/1/3 77/1/3
f 80/1/3 74/1/3 78/1/3
f 80/1/3 78/1/3 79/1/3
f 84/2/3 82/2/3 81/2/3
f 85/12/3 83/12/3 82/12/3
f 85/2/3 82/2/3 84/2/3
f 86/2/3 84/2/3 81/2/3
f 87/12/3 85/12/3 84/12/3
f 87/2/3 84/2/3 86/2/3
f 88/12/3 83/12/3 85/12/3
f 88/12/3 85/12/3 87/12/3
f 89/12/3 83/12/3 88/12/3
f 90/12/3 83/12/3 89/12/3
f 93/2/3 89/2/3 88/2/3
f 93/12/3 90/12/3 89/12/3
f 93/12/3 91/12/3 90/12/3
f 94/12/3 91/12/3 93/12/3
f 95/2/3 92/2/3 91/2/3
f 95/12/3 91/12/3 94/12/3
f 96/2/3 92/2/3 95/2/3
f 99/12/3 87/12/3 86/12/3
f 99/2/3 86/2/3 81/2/3
f 99/12/3 88/12/3 87/12/3
f 100/2/3 94/2/3 93/2/3
f 100/12/3 88/12/3 99/12/3
f 100/2/3 93/2/3 88/2/3
f 101/12/3 97/12/3 96/12/3
f 101/2/3 94/2/3 100/2/3
f 101/12/3 96/12/3 95/12/3
f 101/12/3 95/12/3 94/12/3
f 102/12/3 97/12/3 101/12/3
f 103/2/3 98/2/3 97/2/3
f 104/2/3 98/2/3 103/2/3
f 105/2/3 100/2/3 99/2/3
f 105/2/3 99/2/3 81/2/3
f 105/2/3 101/2/3 100/2/3
f 105/2/3 102/2/3 101/2/3
f 106/2/3 102/2/3 105/2/3
f 107/2/3 102/2/3 106/2/3
f 108/12/3 97/12/3 102/12/3
f 108/2/3 102/2/3 107/2/3
f 109/2/3 103/2/3 97/2/3
f 109/12/3 97/12/3 108/12/3
f 110/2/3 103/2/3 109/2/3
f 111/12/3 106/12/3 105/12/3
f 112/2/3 107/2/3 106/2/3
f 112/12/3 106/12/3 111/12/3
f 113/2/3 112/2/3 111/2/3
f 114/2/3 107/2/3 112/2/3
f 114/2/3 112/2/3 113/2/3
f 115/12/3 111/12/3 105/12/3
f 116/2/3 113/2/3 111/2/3
f 116/12/3 111/12/3 115/12/3
f 117/2/3 113/2/3 116/2/3
f 119/2/3 105/2/3 81/2/3
f 119/12/3 115/12/3 105/12/3
f 120/2/3 118/2/3 117/2/3
f 120/12/3 115/12/3 119/12/3
f 120/2/3 117/2/3 116/2/3
f 120/2/3 116/2/3 115/2/3
f 121/2/3 120/2/3 119/2/3
f 121/2/3 118/2/3 120/2/3
f 122/2/3 118/2/3 121/2/3
f 123/2/3 119/2/3 81/2/3
f 123/2/3 121/2/3 119/2/3
f 124/2/3 121/2/3 123/2/3
f 125/2/3 123/2/3 81/2/3
f 126/2/3 123/2/3 125/2/3
f 130/4/3 128/4/3 127/4/3
f 131/7/3 129/7/3 128/7/3
f 131/4/3 128/4/3 130/4/3
f 132/7/3 129/7/3 131/7/3
f 133/7/3 129/7/3 132/7/3
f 134/7/3 129/7/3 133/7/3
f 135/7/3 129/7/3 134/7/3
f 136/7/3 129/7/3 135/7/3
f 138/7/3 129/7/3 136/7/3
f 139/7/3 129/7/3 138/7/3
f 140/7/3 129/7/3 139/7/3
f 145/7/3 138/7/3 137/7/3
f 145/7/3 139/7/3 138/7/3
f 146/7/3 139/7/3 145/7/3
f 147/5/3 140/5/3 139/5/3
f 147/7/3 139/7/3 146/7/3
f 148/7/3 129/7/3 140/7/3
f 148/5/3 140/5/3 147/5/3
f 149/7/3 129/7/3 148/7/3
f 150/7/3 144/7/3 143/7/3
f 150/7/3 143/7/3 142/7/3
f 150/7/3 146/7/3 145/7/3
f 150/7/3 145/7/3 144/7/3
f 151/5/3 147/5/3 146/5/3
f 151/7/3 146/7/3 150/7/3
f 152/3/3 148/3/3 147/3/3
f 152/5/3 147/5/3 151/5/3
f 153/5/3 149/5/3 148/5/3
f 153/3/3 148/3/3 152/3/3
f 154/7/3 129/7/3 149/7/3
f 154/5/3 149/5/3 153/5/3
f 155/7/3 129/7/3 154/7/3
f 157/4/3 142/4/3 141/4/3
f 158/7/3 150/7/3 142/7/3
f 159/7/3 150/7/3 158/7/3
f 160/5/3 151/5/3 150/5/3
f 160/7/3 150/7/3 159/7/3
f 161/7/3 157/7/3 156/7/3
f 162/7/3 157/7/3 161/7/3
f 163/4/3 142/4/3 157/4/3
f 163/7/3 157/7/3 162/7/3
f 164/7/3 158/7/3 142/7/3
f 164/4/3 142/4/3 163/4/3
f 165/7/3 158/7/3 164/7/3
f 166/7/3 158/7/3 165/7/3
f 167/11/3 159/11/3 158/11/3
f 167/7/3 158/7/3 166/7/3
f 168/11/3 159/11/3 167/11/3
f 169/10/3 160/10/3 159/10/3
f 169/11/3 159/11/3 168/11/3
f 170/10/3 160/10/3 169/10/3
f 171/4/3 163/4/3 162/4/3
f 172/7/3 164/7/3 163/7/3
f 172/4/3 163/4/3 171/4/3
f 172/7/3 165/7/3 164/7/3
f 173/7/3 165/7/3 172/7/3
f 174/7/3 165/7/3 173/7/3
f 175/10/3 160/10/3 170/10/3
f 175/13/3 170/13/3 169/13/3
f 176/10/3 160/10/3 175/10/3
f 177/5/3 151/5/3 160/5/3
f 177/10/3 160/10/3 176/10/3
f 178/3/3 153/3/3 152/3/3
f 178/5/3 151/5/3 177/5/3
f 178/3/3 152/3/3 151/3/3
f 178/3/3 154/3/3 153/3/3
f 179/3/3 154/3/3 178/3/3
f 180/3/3 154/3/3 179/3/3
f 181/5/3 155/5/3 154/5/3
f 181/3/3 154/3/3 180/3/3
f 182/7/3 129/7/3 155/7/3
f 182/5/3 155/5/3 181/5/3
f 185/4/3 171/4/3 162/4/3
f 186/7/3 173/7/3 172/7/3
f 186/7/3 172/7/3 171/7/3
f 187/13/3 174/13/3 173/13/3
f 187/7/3 173/7/3 186/7/3
f 188/13/3 166/13/3 165/13/3
f 188/7/3 165/7/3 174/7/3
f 189/7/3 168/7/3 167/7/3
f 189/13/3 166/13/3 188/13/3
f 189/7/3 167/7/3 166/7/3
f 190/7/3 168/7/3 189/7/3
f 191/7/3 168/7/3 190/7/3
f 192/11/3 169/11/3 168/11/3
f 192/7/3 168/7/3 191/7/3
f 193/13/3 175/13/3 169/13/3
f 193/11/3 169/11/3 192/11/3
f 193/13/3 176/13/3 175/13/3
f 194/10/3 177/10/3 176/10/3
f 194/13/3 176/13/3 193/13/3
f 194/10/3 178/10/3 177/10/3
f 195/10/3 178/10/3 194/10/3
f 196/5/3 179/5/3 178/5/3
f 196/10/3 178/10/3 195/10/3
f 197/3/3 180/3/3 179/3/3
f 197/5/3 179/5/3 196/5/3
f 198/5/3 181/5/3 180/5/3
f 198/3/3 180/3/3 197/3/3
f 199/7/3 182/7/3 181/7/3
f 199/5/3 181/5/3 198/5/3
f 200/7/3 184/7/3 183/7/3
f 201/6/3 185/6/3 184/6/3
f 201/7/3 184/7/3 200/7/3
f 202/7/3 186/7/3 171/7/3
f 203/13/3 187/13/3 186/13/3
f 203/7/3 186/7/3 202/7/3
f 204/13/3 174/13/3 187/13/3
f 204/13/3 187/13/3 203/13/3
f 204/7/3 190/7/3 189/7/3
f 204/7/3 188/7/3 174/7/3
f 204/7/3 189/7/3 188/7/3
f 205/13/3 191/13/3 190/13/3
f 205/7/3 190/7/3 204/7/3
f 206/7/3 193/7/3 192/7/3
f 206/13/3 191/13/3 205/13/3
f 206/7/3 192/7/3 191/7/3
f 206/7/3 194/7/3 193/7/3
f 206/7/3 195/7/3 194/7/3
f 207/7/3 195/7/3 206/7/3
f 208/7/3 195/7/3 207/7/3
f 209/7/3 195/7/3 208/7/3
f 210/10/3 196/10/3 195/10/3
f 210/7/3 195/7/3 209/7/3
f 211/7/3 197/7/3 196/7/3
f 211/10/3 196/10/3 210/10/3
f 212/5/3 198/5/3 197/5/3
f 212/7/3 197/7/3 211/7/3
f 213/7/3 199/7/3 198/7/3
f 213/5/3 198/5/3 212/5/3
f 217/6/3 201/6/3 200/6/3
f 218/6/3 185/6/3 201/6/3
f 218/6/3 201/6/3 217/6/3
f 219/4/3 171/4/3 185/4/3
f 219/6/3 185/6/3 218/6/3
f 220/13/3 203/13/3 202/13/3
f 220/7/3 202/7/3 171/7/3
f 221/7/3 205/7/3 204/7/3
f 221/13/3 203/13/3 220/13/3
f 221/7/3 204/7/3 203/7/3
f 221/7/3 206/7/3 205/7/3
f 221/7/3 207/7/3 206/7/3
f 222/13/3 208/13/3 207/13/3
f 222/7/3 207/7/3 221/7/3
f 223/7/3 209/7/3 208/7/3
f 223/13/3 208/13/3 222/13/3
f 224/13/3 210/13/3 209/13/3
f 224/7/3 209/7/3 223/7/3
f 224/13/3 212/13/3 211/13/3
f 224/13/3 211/13/3 210/13/3
f 225/13/3 212/13/3 224/13/3
f 226/7/3 213/7/3 212/7/3
f 226/13/3 212/13/3 225/13/3
f 227/7/3 213/7/3 226/7/3
f 229/8/3 215/8/3 214/8/3
f 230/7/3 220/7/3 171/7/3
f 230/7/3 223/7/3 222/7/3
f 230/7/3 222/7/3 221/7/3
f 230/7/3 225/7/3 224/7/3
f 230/7/3 221/7/3 220/7/3
f 230/7/3 224/7/3 223/7/3
f 231/7/3 225/7/3 230/7/3
f 232/7/3 225/7/3 231/7/3
f 233/7/3 225/7/3 232/7/3
f 234/13/3 226/13/3 225/13/3
f 234/7/3 225/7/3 233/7/3
f 235/10/3 227/10/3 226/10/3
f 235/13/3 226/13/3 234/13/3
f 236/6/3 217/6/3 216/6/3
f 236/6/3 218/6/3 217/6/3
f 237/4/3 219/4/3 218/4/3
f 237/6/3 218/6/3 236/6/3
f 238/4/3 171/4/3 219/4/3
f 238/4/3 219/4/3 237/4/3
f 239/4/3 171/4/3 238/4/3
f 240/7/3 230/7/3 171/7/3
f 240/4/3 171/4/3 239/4/3
f 241/13/3 231/13/3 230/13/3
f 241/7/3 230/7/3 240/7/3
f 242/7/3 232/7/3 231/7/3
f 242/13/3 231/13/3 241/13/3
f 243/13/3 233/13/3 232/13/3
f 243/7/3 232/7/3 242/7/3
f 244/13/3 233/13/3 243/13/3
f 245/7/3 234/7/3 233/7/3
f 245/7/3 235/7/3 234/7/3
f 246/7/3 235/7/3 245/7/3
f 247/7/3 235/7/3 246/7/3
f 248/10/3 227/10/3 235/10/3
f 248/7/3 235/7/3 247/7/3
f 249/7/3 213/7/3 227/7/3
f 249/10/3 227/10/3 248/10/3
f 250/4/3 237/4/3 236/4/3
f 250/6/3 236/6/3 216/6/3
f 250/4/3 238/4/3 237/4/3
f 251/3/3 239/3/3 238/3/3
f 251/4/3 238/4/3 250/4/3
f 252/13/3 233/13/3 244/13/3
f 252/7/3 244/7/3 243/7/3
f 252/7/3 242/7/3 241/7/3
f 252/7/3 240/7/3 239/7/3
f 252/7/3 243/7/3 242/7/3
f 252/7/3 241/7/3 240/7/3
f 253/7/3 245/7/3 233/7/3
f 253/13/3 233/13/3 252/13/3
f 254/13/3 246/13/3 245/13/3
f 254/7/3 245/7/3 253/7/3
f 255/7/3 247/7/3 246/7/3
f 255/13/3 246/13/3 254/13/3
f 256/8/3 229/8/3 228/8/3
f 256/7/3 216/7/3 215/7/3
f 256/8/3 215/8/3 229/8/3
f 257/6/3 250/6/3 216/6/3
f 257/7/3 216/7/3 256/7/3
f 258/6/3 250/6/3 257/6/3
f 259/6/3 250/6/3 258/6/3
f 260/3/3 251/3/3 250/3/3
f 260/6/3 250/6/3 259/6/3
f 261/3/3 251/3/3 260/3/3
f 262/7/3 255/7/3 254/7/3
f 262/3/3 251/3/3 261/3/3
f 262/7/3 253/7/3 252/7/3
f 262/7/3 254/7/3 253/7/3
f 262/3/3 239/3/3 251/3/3
f 262/7/3 252/7/3 239/7/3
f 263/7/3 255/7/3 262/7/3
f 264/7/3 255/7/3 263/7/3
f 265/7/3 255/7/3 264/7/3
f 266/7/3 255/7/3 265/7/3
f 267/7/3 255/7/3 266/7/3
f 268/7/3 255/7/3 267/7/3
f 269/7/3 255/7/3 268/7/3
f 270/7/3 255/7/3 269/7/3
f 271/13/3 248/13/3 247/13/3
f 272/7/3 249/7/3 248/7/3
f 272/13/3 248/13/3 271/13/3
f 273/3/3 260/3/3 259/3/3
f 273/6/3 259/6/3 258/6/3
f 274/4/3 261/4/3 260/4/3
f 274/3/3 260/3/3 273/3/3
f 275/7/3 262/7/3 261/7/3
f 275/4/3 261/4/3 274/4/3
f 275/7/3 263/7/3 262/7/3
f 276/13/3 264/13/3 263/13/3
f 276/7/3 263/7/3 275/7/3
f 277/7/3 265/7/3 264/7/3
f 277/13/3 264/13/3 276/13/3
f 278/13/3 266/13/3 265/13/3
f 278/7/3 265/7/3 277/7/3
f 279/7/3 267/7/3 266/7/3
f 279/13/3 266/13/3 278/13/3
f 280/13/3 270/13/3 269/13/3
f 280/7/3 269/7/3 268/7/3
f 281/7/3 255/7/3 270/7/3
f 281/13/3 270/13/3 280/13/3
f 282/7/3 247/7/3 255/7/3
f 282/7/3 255/7/3 281/7/3
f 283/13/3 271/13/3 247/13/3
f 283/7/3 247/7/3 282/7/3
f 284/10/3 272/10/3 271/10/3
f 284/13/3 271/13/3 283/13/3
f 285/7/3 249/7/3 272/7/3
f 285/10/3 272/10/3 284/10/3
f 286/7/3 267/7/3 279/7/3
f 286/7/3 275/7/3 274/7/3
f 286/7/3 276/7/3 275/7/3
f 286/7/3 279/7/3 278/7/3
f 286/13/3 268/13/3 267/13/3
f 286/7/3 278/7/3 277/7/3
f 286/7/3 277/7/3 276/7/3
f 287/7/3 281/7/3 280/7/3
f 287/13/3 268/13/3 286/13/3
f 287/7/3 280/7/3 268/7/3
f 288/7/3 281/7/3 287/7/3
f 289/5/3 282/5/3 281/5/3
f 289/7/3 281/7/3 288/7/3
f 290/13/3 283/13/3 282/13/3
f 290/5/3 282/5/3 289/5/3
f 291/10/3 284/10/3 283/10/3
f 291/13/3 283/13/3 290/13/3
f 292/7/3 285/7/3 284/7/3
f 292/10/3 284/10/3 291/10/3
f 293/7/3 288/7/3 287/7/3
f 293/7/3 287/7/3 286/7/3
f 294/5/3 290/5/3 289/5/3
f 294/7/3 288/7/3 293/7/3
f 294/5/3 289/5/3 288/5/3
f 294/5/3 291/5/3 290/5/3
f 295/5/3 291/5/3 294/5/3
f 296/5/3 291/5/3 295/5/3
f 297/7/3 292/7/3 291/7/3
f 297/5/3 291/5/3 296/5/3
f 298/7/3 285/7/3 292/7/3
f 298/7/3 292/7/3 297/7/3
f 299/8/3 258/8/3 257/8/3
f 299/8/3 257/8/3 256/8/3
f 299/8/3 256/8/3 228/8/3
f 300/8/3 258/8/3 299/8/3
f 301/6/3 273/6/3 258/6/3
f 301/8/3 258/8/3 300/8/3
f 302/7/3 286/7/3 274/7/3
f 302/7/3 293/7/3 286/7/3
f 303/7/3 293/7/3 302/7/3
f 304/7/3 300/7/3 299/7/3
f 304/8/3 299/8/3 228/8/3
f 305/6/3 301/6/3 300/6/3
f 305/7/3 300/7/3 304/7/3
f 306/6/3 273/6/3 301/6/3
f 306/6/3 301/6/3 305/6/3
f 307/4/3 274/4/3 273/4/3
f 307/6/3 273/6/3 306/6/3
f 308/13/3 303/13/3 302/13/3
f 308/7/3 302/7/3 274/7/3
f 309/7/3 293/7/3 303/7/3
f 309/13/3 303/13/3 308/13/3
f 310/7/3 293/7/3 309/7/3
f 311/7/3 293/7/3 310/7/3
f 312/7/3 308/7/3 274/7/3
f 312/7/3 309/7/3 308/7/3
f 312/7/3 310/7/3 309/7/3
f 313/7/3 310/7/3 312/7/3
f 314/13/3 311/13/3 310/13/3
f 314/7/3 310/7/3 313/7/3
f 315/7/3 293/7/3 311/7/3
f 315/13/3 311/13/3 314/13/3
f 316/5/3 295/5/3 294/5/3
f 316/7/3 293/7/3 315/7/3
f 316/5/3 294/5/3 293/5/3
f 317/5/3 295/5/3 316/5/3
f 318/3/3 296/3/3 295/3/3
f 318/5/3 295/5/3 317/5/3
f 319/5/3 297/5/3 296/5/3
f 319/3/3 296/3/3 318/3/3
f 319/5/3 298/5/3 297/5/3
f 320/5/3 298/5/3 319/5/3
f 321/7/3 285/7/3 298/7/3
f 321/5/3 298/5/3 320/5/3
f 322/7/3 314/7/3 313/7/3
f 322/5/3 318/5/3 317/5/3
f 322/5/3 320/5/3 319/5/3
f 322/5/3 319/5/3 318/5/3
f 322/7/3 316/7/3 315/7/3
f 322/7/3 317/7/3 316/7/3
f 322/7/3 315/7/3 314/7/3
f 323/5/3 320/5/3 322/5/3
f 324/5/3 320/5/3 323/5/3
f 325/7/3 321/7/3 320/7/3
f 325/5/3 320/5/3 324/5/3
f 326/6/3 305/6/3 304/6/3
f 326/8/3 304/8/3 228/8/3
f 326/6/3 306/6/3 305/6/3
f 327/6/3 306/6/3 326/6/3
f 328/4/3 307/4/3 306/4/3
f 328/6/3 306/6/3 327/6/3
f 329/4/3 274/4/3 307/4/3
f 329/4/3 307/4/3 328/4/3
f 329/7/3 312/7/3 274/7/3
f 330/13/3 313/13/3 312/13/3
f 330/7/3 312/7/3 329/7/3
f 331/7/3 323/7/3 322/7/3
f 331/13/3 313/13/3 330/13/3
f 331/7/3 322/7/3 313/7/3
f 332/7/3 323/7/3 331/7/3
f 333/7/3 323/7/3 332/7/3
f 334/7/3 323/7/3 333/7/3
f 335/5/3 324/5/3 323/5/3
f 335/7/3 323/7/3 334/7/3
f 336/7/3 325/7/3 324/7/3
f 336/5/3 324/5/3 335/5/3
f 337/7/3 321/7/3 325/7/3
f 337/7/3 325/7/3 336/7/3
f 337/7/3 213/7/3 249/7/3
f 337/7/3 285/7/3 321/7/3
f 337/7/3 249/7/3 285/7/3
f 338/7/3 182/7/3 199/7/3
f 338/7/3 213/7/3 337/7/3
f 338/7/3 199/7/3 213/7/3
f 339/7/3 327/7/3 326/7/3
f 339/8/3 326/8/3 228/8/3
f 340/4/3 328/4/3 327/4/3
f 340/7/3 327/7/3 339/7/3
f 341/7/3 332/7/3 331/7/3
f 341/4/3 328/4/3 340/4/3
f 341/7/3 329/7/3 328/7/3
f 341/7/3 330/7/3 329/7/3
f 341/7/3 331/7/3 330/7/3
f 342/7/3 332/7/3 341/7/3
f 343/13/3 333/13/3 332/13/3
f 343/7/3 332/7/3 342/7/3
f 344/5/3 334/5/3 333/5/3
f 344/13/3 333/13/3 343/13/3
f 345/7/3 336/7/3 335/7/3
f 345/5/3 334/5/3 344/5/3
f 345/7/3 335/7/3 334/7/3
f 345/7/3 337/7/3 336/7/3
f 346/7/3 337/7/3 345/7/3
f 347/7/3 337/7/3 346/7/3
f 348/5/3 338/5/3 337/5/3
f 348/7/3 337/7/3 347/7/3
f 349/7/3 182/7/3 338/7/3
f 349/5/3 338/5/3 348/5/3
f 350/7/3 129/7/3 182/7/3
f 350/7/3 182/7/3 349/7/3
f 351/7/3 347/7/3 346/7/3
f 352/7/3 347/7/3 351/7/3
f 353/7/3 347/7/3 352/7/3
f 354/5/3 349/5/3 348/5/3
f 354/7/3 347/7/3 353/7/3
f 354/5/3 348/5/3 347/5/3
f 354/5/3 350/5/3 349/5/3
f 355/5/3 350/5/3 354/5/3
f 356/5/3 350/5/3 355/5/3
f 357/7/3 129/7/3 350/7/3
f 357/5/3 350/5/3 356/5/3
f 358/7/3 129/7/3 357/7/3
f 359/8/3 340/8/3 339/8/3
f 359/8/3 339/8/3 228/8/3
f 360/8/3 340/8/3 359/8/3
f 361/13/3 352/13/3 351/13/3
f 361/7/3 351/7/3 346/7/3
f 362/7/3 353/7/3 352/7/3
f 362/13/3 352/13/3 361/13/3
f 363/7/3 360/7/3 359/7/3
f 364/8/3 340/8/3 360/8/3
f 364/7/3 360/7/3 363/7/3
f 365/7/3 343/7/3 342/7/3
f 366/7/3 343/7/3 365/7/3
f 367/5/3 344/5/3 343/5/3
f 367/7/3 343/7/3 366/7/3
f 368/3/3 345/3/3 344/3/3
f 368/5/3 344/5/3 367/5/3
f 369/5/3 346/5/3 345/5/3
f 369/3/3 345/3/3 368/3/3
f 370/7/3 361/7/3 346/7/3
f 370/5/3 346/5/3 369/5/3
f 370/7/3 362/7/3 361/7/3
f 371/13/3 366/13/3 365/13/3
f 371/7/3 365/7/3 342/7/3
f 372/7/3 367/7/3 366/7/3
f 372/13/3 366/13/3 371/13/3
f 372/7/3 368/7/3 367/7/3
f 373/5/3 369/5/3 368/5/3
f 373/7/3 368/7/3 372/7/3
f 374/7/3 370/7/3 369/7/3
f 374/5/3 369/5/3 373/5/3
f 375/7/3 362/7/3 370/7/3
f 375/7/3 370/7/3 374/7/3
f 375/7/3 353/7/3 362/7/3
f 375/5/3 354/5/3 353/5/3
f 375/5/3 355/5/3 354/5/3
f 376/5/3 355/5/3 375/5/3
f 377/3/3 356/3/3 355/3/3
f 377/5/3 355/5/3 376/5/3
f 378/5/3 358/5/3 357/5/3
f 378/3/3 356/3/3 377/3/3
f 378/5/3 357/5/3 356/5/3
f 379/5/3 358/5/3 378/5/3
f 380/7/3 129/7/3 358/7/3
f 380/5/3 358/5/3 379/5/3
f 381/4/3 342/4/3 341/4/3
f 381/4/3 341/4/3 340/4/3
f 381/8/3 340/8/3 364/8/3
f 381/8/3 364/8/3 363/8/3
f 382/7/3 374/7/3 373/7/3
f 382/4/3 342/4/3 381/4/3
f 382/7/3 372/7/3 371/7/3
f 382/7/3 376/7/3 375/7/3
f 382/7/3 373/7/3 372/7/3
f 382/7/3 375/7/3 374/7/3
f 382/7/3 371/7/3 342/7/3
f 383/7/3 376/7/3 382/7/3
f 384/7/3 376/7/3 383/7/3
f 385/7/3 376/7/3 384/7/3
f 386/7/3 376/7/3 385/7/3
f 387/7/3 376/7/3 386/7/3
f 388/7/3 376/7/3 387/7/3
f 389/5/3 379/5/3 378/5/3
f 389/7/3 376/7/3 388/7/3
f 389/5/3 378/5/3 377/5/3
f 389/5/3 377/5/3 376/5/3
f 390/5/3 379/5/3 389/5/3
f 391/5/3 379/5/3 390/5/3
f 392/7/3 380/7/3 379/7/3
f 392/5/3 379/5/3 391/5/3
f 393/8/3 381/8/3 363/8/3
f 394/8/3 381/8/3 393/8/3
f 395/7/3 382/7/3 381/7/3
f 395/7/3 383/7/3 382/7/3
f 396/13/3 384/13/3 383/13/3
f 396/7/3 383/7/3 395/7/3
f 397/7/3 385/7/3 384/7/3
f 397/13/3 384/13/3 396/13/3
f 398/13/3 386/13/3 385/13/3
f 398/7/3 385/7/3 397/7/3
f 399/7/3 387/7/3 386/7/3
f 399/13/3 386/13/3 398/13/3
f 400/13/3 388/13/3 387/13/3
f 400/7/3 387/7/3 399/7/3
f 401/7/3 389/7/3 388/7/3
f 401/13/3 388/13/3 400/13/3
f 401/7/3 390/7/3 389/7/3
f 402/5/3 391/5/3 390/5/3
f 402/7/3 390/7/3 401/7/3
f 403/7/3 392/7/3 391/7/3
f 403/5/3 391/5/3 402/5/3
f 404/7/3 394/7/3 393/7/3
f 405/8/3 381/8/3 394/8/3
f 405/7/3 394/7/3 404/7/3
f 406/7/3 395/7/3 381/7/3
f 406/8/3 381/8/3 405/8/3
f 407/13/3 396/13/3 395/13/3
f 407/7/3 395/7/3 406/7/3
f 408/7/3 399/7/3 398/7/3
f 408/13/3 396/13/3 407/13/3
f 408/7/3 401/7/3 400/7/3
f 408/7/3 403/7/3 402/7/3
f 408/7/3 402/7/3 401/7/3
f 408/7/3 398/7/3 397/7/3
f 408/7/3 400/7/3 399/7/3
f 408/7/3 397/7/3 396/7/3
f 409/7/3 407/7/3 406/7/3
f 409/7/3 406/7/3 405/7/3
f 409/7/3 408/7/3 407/7/3
f 410/7/3 408/7/3 409/7/3
f 411/8/3 405/8/3 404/8/3
f 412/7/3 409/7/3 405/7/3
f 412/8/3 405/8/3 411/8/3
f 413/4/3 410/4/3 409/4/3
f 413/7/3 409/7/3 412/7/3
f 413/7/3 412/7/3 411/7/3
f 414/7/3 408/7/3 410/7/3
f 414/4/3 410/4/3 413/4/3
f 415/7/3 413/7/3 411/7/3
f 415/7/3 414/7/3 413/7/3
f 416/7/3 380/7/3 392/7/3
f 416/7/3 414/7/3 415/7/3
f 416/7/3 129/7/3 380/7/3
f 416/7/3 403/7/3 408/7/3
f 416/7/3 392/7/3 403/7/3
f 416/7/3 408/7/3 414/7/3
f 417/1/4 418/1/4 419/1/4
f 419/1/4 418/1/4 420/1/4
f 423/1/5 422/1/5 421/1/5
f 424/1/5 422/1/5 423/1/5
f 427/1/5 426/1/5 425/1/5
f 428/1/5 426/1/5 427/1/5
f 429/9/5 428/9/5 427/9/5
f 430/9/5 428/9/5 429/9/5
f 431/1/6 432/1/6 433/1/6
f 433/1/6 432/1/6 434/1/6
f 434/1/6 432/1/6 435/1/6
f 434/9/6 435/9/6 436/9/6
f 436/9/6 435/9/6 437/9/6
f 437/9/6 435/9/6 438/9/6
f 438/9/6 435/9/6 439/9/6
f 439/9/6 435/9/6 440/9/6
f 440/9/6 435/9/6 441/9/6
f 441/9/6 435/9/6 442/9/6
f 443/2/6 444/2/6 445/2/6
f 445/2/6 444/2/6 446/2/6
f 447/2/6 448/2/6 451/2/6
f 451/2/6 448/2/6 452/2/6
f 449/2/6 450/2/6 453/2/6
f 453/2/6 450/2/6 454/2/6
f 454/2/6 450/2/6 455/2/6
f 456/2/6 457/2/6 458/2/6
f 458/2/6 457/2/6 459/2/6
f 460/2/6 461/2/6 462/2/6
f 462/2/6 461/2/6 463/2/6
f 464/12/6 465/12/6 466/12/6
f 466/12/6 465/12/6 467/12/6
f 468/2/6 469/2/6 470/2/6
f 470/2/6 469/2/6 471/2/6
f 472/2/6 473/2/6 474/2/6
f 474/2/6 473/2/6 475/2/6
f 476/2/6 477/2/6 478/2/6
f 478/2/6 477/2/6 479/2/6
f 480/1/6 481/1/6 482/1/6
f 482/1/6 481/1/6 483/1/6
